<?xml version="1.0" standalone="no"?><!DOCTYPE svg PUBLIC "-//W3C//DTD SVG 1.1//EN" "http://www.w3.org/Graphics/SVG/1.1/DTD/svg11.dtd"><svg width="100%" height="40" viewBox="0 0 416 80" version="1.1" xmlns="http://www.w3.org/2000/svg" xmlns:xlink="http://www.w3.org/1999/xlink" xml:space="preserve" style="fill-rule:evenodd;clip-rule:evenodd;stroke-linejoin:round;stroke-miterlimit:1.41421;"><g><g><path d="M16.7739,72.573c-10.5845,-7.19662 -16.7739,-18.8088 -16.7739,-32.573c0,-22.0914 17.9086,-40 40,-40c22.0914,0 40,17.9086 40,40c0,13.3485 -6.53852,25.1698 -16.5875,32.4357c-0.0600405,0.0434122 -0.120206,0.0866618 -0.180497,0.129748c-1.58828,-5.46727 -2.11761,-11.7097 -1.24866,-14.3165c1.4,-4.1 4.9,-12.3 4.9,-16.9c0,-2.1 -0.3,-4.1 -0.8,-6.1c0.7,-0.4 1.4,-0.9 1.9,-1.7c1.4,-1.9 1.3,-4.4 -0.2,-5.4c-0.993429,-0.695401 -3.32696,-0.803287 -4.68348,0.478339l0.00353589,0.00533378l-0.00916751,0l0.00271362,-0.00257957l0.00291799,-0.00275422c-1.26939,-1.91545 -2.77228,-3.66268 -4.46809,-5.20108c-4.78744,-4.41228 -11.3174,-7.12387 -18.6315,-7.17639l0,-5.7412e-06l-0.00028681,2.8706e-06l-0.00028681,-2.8706e-06l0,5.7412e-06c-7.3141,0.0525205 -13.8441,2.76411 -18.6315,7.17639c-1.69581,1.5384 -3.19869,3.28564 -4.46809,5.20108l0.00563162,0.00533378l-0.00916751,0l0.000543783,-0.000821768l0.00299211,-0.00451202c-1.35652,-1.28163 -3.69005,-1.17374 -4.68348,-0.478339c-1.5,1 -1.6,3.5 -0.2,5.4c0.5,0.8 1.2,1.3 1.9,1.7c-0.5,2 -0.8,4 -0.8,6.1c0,4.6 3.5,12.8 4.9,16.9c0.86897,2.60691 0.33959,8.84953 -1.24866,14.3165c-0.00313325,0.0107851 -0.252471,-0.168125 0.00596338,0.00758521Z" style="fill:#aebfce;"/><g><path d="M22.3723,75.9161c0.00201039,-0.00810849 -3.01753,-1.50183 -5.60436,-3.35065c1.58825,-5.46697 2.11763,-11.7096 1.24866,-14.3165c-1.4,-4.1 -4.9,-12.3 -4.9,-16.9c0,-2.1 0.3,-4.1 0.8,-6.1c-0.7,-0.4 -1.4,-0.9 -1.9,-1.7c-1.4,-1.9 -1.3,-4.4 0.2,-5.4c0.993429,-0.695401 3.32696,-0.803287 4.68348,0.478339l-0.00299211,0.00451202l-0.000543783,0.000821768l0.00916751,0l-0.00271362,-0.00257957l-0.00291799,-0.00275422c1.26939,-1.91545 2.77228,-3.66268 4.46809,-5.20108c4.78744,-4.41228 11.3174,-7.12387 18.6315,-7.17639l0,-5.7412e-06l0.00028681,2.8706e-06l0.00028681,-2.8706e-06l0,5.7412e-06c7.3141,0.0525205 13.8441,2.76411 18.6315,7.17639c1.69581,1.5384 3.19869,3.28564 4.46809,5.20108l-0.00291799,0.00275422l-0.00271362,0.00257957l0.00916751,0l-0.00353589,-0.00533378c1.35652,-1.28163 3.69005,-1.17374 4.68348,-0.478339c1.5,1 1.6,3.5 0.2,5.4c-0.5,0.8 -1.2,1.3 -1.9,1.7c0.5,2 0.8,4 0.8,6.1c0,4.6 -3.5,12.8 -4.9,16.9c-0.868978,2.60694 -0.33958,8.84965 1.24869,14.3166c-1.76647,1.26247 -3.63997,2.38479 -5.60437,3.35064c-1.05028,-4.23622 -1.48908,-8.55891 -0.618789,-12.0401c0.7,-2.9 3.5,-7.8 2.8,-13.1c-0.5,-3.5 -2.7,-7.8 -8.1,-9.4c-1.3,-0.4 -3.4,-0.7 -5.8,-1c-0.1,0.5 -0.3,0.9 -0.6,1.3c-0.4,0.5 -0.816499,0.866655 -1.8165,0.966655c-0.306332,0.0306332 -0.674122,0.209611 -0.857571,0.481264c-0.363917,0.538891 -0.988275,2.1434 -1.32593,2.75208c-0.184364,0.332347 -0.4,0.7 -0.7,0.9l0,2.4c1.1,1.4 2.3,2.2 3.6,2.2c2.3,0 4.1,-2.4 4.1,-2.4l1.1,0.8c-0.1,0.1 -2.2,2.9 -5.1,2.9c-1.6,0 -3,-0.8 -4.3,-2.3c-0.00356606,0.00411469 -0.0142205,0.00411469 -0.0177866,0c-1.3,1.5 -2.7,2.3 -4.3,2.3c-2.9,0 -5,-2.8 -5.1,-2.9l1.1,-0.8c0,0 1.8,2.4 4.1,2.4c1.3,0 2.5,-0.8 3.6,-2.2l0,-2.4c-0.3,-0.2 -0.515636,-0.567653 -0.7,-0.9c-0.337655,-0.60868 -0.962013,-2.21319 -1.32593,-2.75208c-0.183449,-0.271653 -0.551239,-0.450631 -0.857571,-0.481264c-1,-0.1 -1.4165,-0.466655 -1.8165,-0.966655c-0.3,-0.4 -0.5,-0.8 -0.6,-1.3c-2.4,0.3 -4.5,0.6 -5.8,1c-5.4,1.6 -7.6,5.9 -8.1,9.4c-0.7,5.3 2.1,10.2 2.8,13.1c0.870307,3.48123 0.431468,7.80405 -0.618769,12.04Z" style="fill:#3b3735;"/><path d="M27.1968,32.8109c1.1,0 2,-0.9 2,-2.1c0,-1.2 -0.9,-2.1 -2,-2.1c-1.1,0 -2,0.9 -2,2.1c0,1.1 0.9,2.1 2,2.1Z" style="fill:#fff;fill-rule:nonzero;"/><path d="M52.8032,32.8109c-1.1,0 -2,-0.9 -2,-2.1c0,-1.2 0.9,-2.1 2,-2.1c1.1,0 2,0.9 2,2.1c0,1.1 -0.9,2.1 -2,2.1Z" style="fill:#fff;fill-rule:nonzero;"/><path d="M57.6277,75.9162c-5.31798,2.6151 -11.3013,4.08377 -17.6277,4.08377c-6.32639,0 -12.3097,-1.46868 -17.6277,-4.08392c1.05024,-4.23591 1.48908,-8.55873 0.618769,-12.04c-0.7,-2.9 -3.5,-7.8 -2.8,-13.1c0.5,-3.5 2.7,-7.8 8.1,-9.4c1.3,-0.4 3.4,-0.7 5.8,-1c0.1,0.5 0.3,0.9 0.6,1.3c0.4,0.5 0.816499,0.866655 1.8165,0.966655c0.306332,0.0306332 0.674122,0.209611 0.857571,0.481264c0.363917,0.538891 0.988275,2.1434 1.32593,2.75208c0.184364,0.332347 0.4,0.7 0.7,0.9l0,2.4c-1.1,1.4 -2.3,2.2 -3.6,2.2c-2.3,0 -4.1,-2.4 -4.1,-2.4l-1.1,0.8c0.1,0.1 2.2,2.9 5.1,2.9c1.6,0 3,-0.8 4.3,-2.3c0.00356606,0.00411469 0.0142205,0.00411469 0.0177866,0c1.3,1.5 2.7,2.3 4.3,2.3c2.9,0 5,-2.8 5.1,-2.9l-1.1,-0.8c0,0 -1.8,2.4 -4.1,2.4c-1.3,0 -2.5,-0.8 -3.6,-2.2l0,-2.4c0.3,-0.2 0.515636,-0.567653 0.7,-0.9c0.337655,-0.60868 0.962013,-2.21319 1.32593,-2.75208c0.183449,-0.271653 0.551239,-0.450631 0.857571,-0.481264c1,-0.1 1.4165,-0.466655 1.8165,-0.966655c0.3,-0.4 0.5,-0.8 0.6,-1.3c2.4,0.3 4.5,0.6 5.8,1c5.4,1.6 7.6,5.9 8.1,9.4c0.7,5.3 -2.1,10.2 -2.8,13.1c-0.870307,3.48123 -0.431468,7.80405 0.618803,12.0401Z" style="fill:#fff;"/><path d="M40.3032,28.584c-0.200565,-0.0155376 -0.405775,-0.0167537 -0.60634,0c-0.268854,0.0224581 -0.8,0.1 -1,0.2c0.2,2.4 0.1,3.4 -0.3,5.2c-1.5,0.6 -2.9,2 -3.7,3.1c-0.0510519,0.0701963 -0.2,0.1 -0.3,0.1c-2.4,0.2 -4.8,0.3 -7.2,0.3c-2.3,0 -4.7,-0.1 -7.1,-0.3c-1.9,-0.1 -3.7,-1.5 -4,-3c-0.5,-2 -0.5,-4.1 -0.2,-6.2c0.1,-0.4 0.1,-0.7 0.2,-1.1c0.3,-1.5 2.1,-2.8 4,-3l0.1,0c2.4,-0.2 4.8,-0.3 7.1,-0.3c2.4,0 4.8,0.1 7.2,0.3c1.9,0.1 3.7,1.5 4,3c0.0385102,0.192551 0.0256538,0.19469 0.1,0.2c0.233333,0.0166667 0.8,-0.1 1.3,-0.1l0.10317,0.000107693l0.10317,-0.000107693c0.5,0 0.9,0 1.3,0.1c-0.000188145,-4.70363e-05 0.0542612,0.0286938 0.1,-0.2c0.3,-1.5 2.1,-2.9 4,-3c2.4,-0.2 4.8,-0.3 7.2,-0.3c2.3,0 4.7,0.1 7.1,0.3l0.1,0c1.9,0.2 3.7,1.5 4,3c0.1,0.4 0.1,0.7 0.2,1.1c0.3,2.1 0.3,4.2 -0.2,6.2c-0.3,1.5 -2.1,2.9 -4,3c-2.4,0.2 -4.8,0.3 -7.1,0.3c-2.4,0 -4.8,-0.1 -7.2,-0.3c-0.1,0 -0.240134,-0.0176843 -0.3,-0.1c-0.8,-1.1 -2.2,-2.5 -3.7,-3.1c-0.4,-1.8 -0.5,-2.8 -0.3,-5.2c-0.2,-0.1 -0.731015,-0.179162 -1,-0.2ZM43.6032,33.984c0.2,0.7 1.2,1.5 2.1,1.6c2.3,0.2 4.6,0.3 6.9,0.3c2.3,0 4.6,-0.1 6.9,-0.3c0.9,-0.1 2,-0.9 2.1,-1.6c0.5,-2.2 0.5,-4.5 0,-6.7c-0.2,-0.7 -1.2,-1.5 -2.1,-1.6c-2.3,-0.2 -4.6,-0.3 -6.9,-0.3c-2.3,0 -4.6,0.1 -6.9,0.3c-0.9,0.1 -2,0.9 -2.1,1.6c-0.4,2.2 -0.4,4.5 0,6.7ZM36.3968,33.984c-0.2,0.7 -1.2,1.5 -2.1,1.6c-2.3,0.2 -4.6,0.3 -6.9,0.3c-2.3,0 -4.6,-0.1 -6.9,-0.3c-0.9,-0.1 -2,-0.9 -2.1,-1.6c-0.5,-2.2 -0.5,-4.5 0,-6.7c0.2,-0.7 1.2,-1.5 2.1,-1.6c2.3,-0.2 4.6,-0.3 6.9,-0.3c2.3,0 4.6,0.1 6.9,0.3c0.9,0.1 2,0.9 2.1,1.6c0.4,2.2 0.4,4.5 0,6.7Z" style="fill:#74aa8b;"/></g></g><g><path d="M117.841,57.0669c-1.97872,0.658227 -4.24012,0.940325 -6.59575,0.940325c-2.82674,0 -5.37082,-0.470163 -7.63221,-1.31646c-2.2614,-0.846293 -4.24013,-2.06872 -5.84195,-3.66727c-1.60182,-1.59855 -2.82675,-3.4792 -3.67477,-5.64196c-0.848025,-2.16274 -1.31915,-4.60759 -1.31915,-7.2405c0,-2.63291 0.3769,-5.07776 1.22492,-7.33454c0.848024,-2.16275 2.07295,-4.0434 3.58055,-5.64195c1.5076,-1.59856 3.48632,-2.82098 5.6535,-3.66727c2.26139,-0.8463 4.71124,-1.31646 7.44377,-1.31646c1.41337,0 2.63829,0.09403 3.86322,0.2821c1.22492,0.18806 2.2614,0.47016 3.29787,0.84629c1.03647,0.37613 1.97872,0.8463 2.82675,1.41049c0.84802,0.5642 1.69605,1.12839 2.44985,1.88065l-1.31915,2.16275c-0.18845,0.2821 -0.47113,0.5642 -0.84803,0.65823c-0.3769,0.09403 -0.7538,0 -1.1307,-0.18807c-0.3769,-0.18806 -0.84802,-0.47016 -1.31915,-0.84629c-0.47112,-0.2821 -1.1307,-0.65823 -1.88449,-0.94033c-0.7538,-0.28209 -1.60183,-0.56419 -2.54408,-0.75226c-0.94225,-0.18806 -2.16717,-0.28209 -3.48632,-0.28209c-1.97872,0 -3.769,0.28209 -5.37082,0.94032c-1.60182,0.65823 -2.92097,1.59856 -4.05167,2.72695c-1.1307,1.22242 -1.97872,2.63291 -2.6383,4.32549c-0.565349,1.69259 -0.942249,3.57324 -0.942249,5.73599c0,2.16275 0.282675,4.13743 0.942249,5.92405c0.659575,1.69259 1.5076,3.19711 2.73252,4.41953c1.1307,1.22242 2.54408,2.16275 4.24012,2.82098c1.69605,0.658227 3.58055,0.940325 5.6535,0.940325c0.84802,0 1.60182,-0.094032 2.2614,-0.188065c0.7538,-0.094033 1.41337,-0.188065 2.07295,-0.37613c0.65957,-0.188065 1.31915,-0.37613 1.88449,-0.658228c0.56535,-0.282098 1.22493,-0.564195 1.8845,-0.846293l0,-7.71066l-5.46504,0c-0.28268,0 -0.56535,-0.09404 -0.7538,-0.2821c-0.18845,-0.18807 -0.28268,-0.37613 -0.28268,-0.65823l0,-2.72694l10.8359,0l0,13.4467c-1.8845,1.22242 -3.769,2.16275 -5.74772,2.82098ZM127.829,57.6311l0,-24.8246l2.54407,0c0.47113,0 0.7538,0.09403 0.94225,0.2821c0.18845,0.18806 0.28268,0.47016 0.3769,0.94032l0.28268,3.7613c0.7538,-1.69258 1.79027,-3.00904 2.92097,-3.94936c1.1307,-0.94033 2.54407,-1.41049 4.24012,-1.41049c0.56535,0 1.03648,0.09403 1.5076,0.18806c0.47113,0.09404 0.94225,0.2821 1.31915,0.5642l-0.28267,3.29114c-0.09423,0.37613 -0.3769,0.65823 -0.7538,0.65823c-0.18845,0 -0.56535,-0.09404 -1.03648,-0.18807c-0.47112,-0.09403 -0.94225,-0.18806 -1.5076,-0.18806c-0.7538,0 -1.5076,0.09403 -2.07295,0.37613c-0.65957,0.28209 -1.13069,0.56419 -1.69604,1.03436c-0.47113,0.47016 -0.94225,1.03435 -1.31915,1.69258c-0.3769,0.65823 -0.7538,1.41049 -1.03648,2.25678l0,15.7034l-4.42857,0l0,-0.188065ZM154.212,32.4304c1.79027,0 3.48632,0.2821 4.8997,0.94033c1.41337,0.56419 2.73252,1.50452 3.76899,2.53887c1.03648,1.12839 1.79028,2.44485 2.35563,4.0434c0.56535,1.59856 0.84802,3.29114 0.84802,5.26583c0,1.97468 -0.28267,3.7613 -0.84802,5.26582c-0.56535,1.59855 -1.31915,2.91501 -2.35563,4.0434c-1.03647,1.12839 -2.26139,1.97468 -3.76899,2.53888c-1.41338,0.564195 -3.10943,0.846292 -4.8997,0.846292c-1.79027,0 -3.48632,-0.282097 -4.8997,-0.846292c-1.50759,-0.564196 -2.73252,-1.41049 -3.76899,-2.53888c-1.03648,-1.12839 -1.79028,-2.44485 -2.35563,-4.0434c-0.56535,-1.59855 -0.84802,-3.29114 -0.84802,-5.26582c0,-1.97469 0.28267,-3.66727 0.84802,-5.26583c0.56535,-1.59855 1.31915,-2.91501 2.35563,-4.0434c1.03647,-1.12839 2.2614,-1.97468 3.76899,-2.53887c1.41338,-0.65823 3.0152,-0.94033 4.8997,-0.94033ZM154.212,54.528c2.44985,0 4.24012,-0.846293 5.46505,-2.44485c1.22492,-1.59855 1.79027,-3.94936 1.79027,-6.86437c0,-2.91501 -0.56535,-5.26583 -1.79027,-6.86438c-1.22493,-1.69259 -3.0152,-2.44485 -5.46505,-2.44485c-1.22492,0 -2.35562,0.18807 -3.20365,0.65823c-0.94225,0.47016 -1.69605,1.03436 -2.2614,1.88065c-0.65957,0.75226 -1.03647,1.78662 -1.41337,2.91501c-0.28267,1.12839 -0.47112,2.44485 -0.47112,3.94937c0,2.91501 0.56535,5.26582 1.79027,6.86438c1.22492,1.59855 3.0152,2.35081 5.55927,2.35081ZM181.066,32.4304c1.79028,0 3.48633,0.2821 4.8997,0.94033c1.41337,0.56419 2.73252,1.50452 3.769,2.53887c1.03647,1.12839 1.79027,2.44485 2.35562,4.0434c0.56539,1.59856 0.84799,3.29114 0.84799,5.26583c0,1.97468 -0.2826,3.7613 -0.84799,5.26582c-0.56535,1.59855 -1.31915,2.91501 -2.35562,4.0434c-1.03648,1.12839 -2.2614,1.97468 -3.769,2.53888c-1.41337,0.564195 -3.10942,0.846292 -4.8997,0.846292c-1.79027,0 -3.48632,-0.282097 -4.89969,-0.846292c-1.5076,-0.564196 -2.73253,-1.41049 -3.769,-2.53888c-1.03647,-1.12839 -1.79027,-2.44485 -2.35562,-4.0434c-0.56535,-1.59855 -0.84803,-3.29114 -0.84803,-5.26582c0,-1.97469 0.28268,-3.66727 0.84803,-5.26583c0.56535,-1.59855 1.31915,-2.91501 2.35562,-4.0434c1.03647,-1.12839 2.2614,-1.97468 3.769,-2.53887c1.41337,-0.65823 3.0152,-0.94033 4.89969,-0.94033ZM181.066,54.528c2.44985,0 4.24013,-0.846293 5.46505,-2.44485c1.22492,-1.59855 1.79027,-3.94936 1.79027,-6.86437c0,-2.91501 -0.56535,-5.26583 -1.79027,-6.86438c-1.22492,-1.69259 -3.0152,-2.44485 -5.46505,-2.44485c-1.22492,0 -2.35562,0.18807 -3.20364,0.65823c-0.94225,0.47016 -1.69605,1.03436 -2.2614,1.88065c-0.65958,0.75226 -1.03648,1.78662 -1.41338,2.91501c-0.28267,1.12839 -0.47112,2.44485 -0.47112,3.94937c0,2.91501 0.56535,5.26582 1.79027,6.86438c1.22493,1.59855 3.0152,2.35081 5.55927,2.35081ZM193.786,32.8065l3.5805,0c0.3769,0 0.6596,0.09403 0.848,0.2821c0.1885,0.18806 0.3769,0.37613 0.4712,0.65823l6.313,15.9855c0.1885,0.564195 0.3769,1.22242 0.4711,1.78662c0.1885,0.564195 0.2827,1.12839 0.3769,1.69259c0.0943,-0.564195 0.2827,-1.12839 0.3769,-1.69259c0.1885,-0.564195 0.2827,-1.12839 0.5654,-1.78662l6.4073,-15.9855c0.0942,-0.2821 0.2827,-0.47017 0.4711,-0.65823c0.1885,-0.18807 0.4711,-0.2821 0.848,-0.2821l3.3921,0l-10.082,24.8246l-3.8632,0l-10.1763,-24.8246ZM230.534,32.4304c1.5076,0 2.8267,0.2821 4.1459,0.75226c1.2249,0.47016 2.3556,1.22242 3.2978,2.16275c0.9423,0.94032 1.6019,2.06871 2.1672,3.4792c0.5654,1.41049 0.7538,2.91501 0.7538,4.70163c0,0.65823 -0.0942,1.12839 -0.1884,1.41049c-0.1885,0.18806 -0.4712,0.37613 -0.8481,0.37613l-16.5835,0c0,1.59855 0.2826,2.91501 0.6595,4.0434c0.3769,1.12839 0.9423,2.16275 1.6019,2.91501c0.6595,0.75226 1.5076,1.31646 2.4498,1.69259c0.9423,0.376131 1.9787,0.564196 3.2037,0.564196c1.1307,0 2.0729,-0.094033 2.8267,-0.37613c0.7538,-0.282098 1.5076,-0.564196 2.0729,-0.846293c0.5654,-0.282098 1.0365,-0.564196 1.4134,-0.846293c0.3769,-0.282098 0.7538,-0.376131 1.0365,-0.376131c0.3769,0 0.6596,0.094033 0.848,0.376131l1.2249,1.59855c-0.5653,0.658228 -1.2249,1.22242 -1.9787,1.69259c-0.7538,0.470163 -1.6018,0.846293 -2.4498,1.22242c-0.8481,0.282098 -1.7903,0.564195 -2.6383,0.658228c-0.848,0.094032 -1.7903,0.188065 -2.7325,0.188065c-1.6961,0 -3.2979,-0.282098 -4.7113,-0.846293c-1.4134,-0.564195 -2.7325,-1.41049 -3.769,-2.53888c-1.0365,-1.12839 -1.8845,-2.53888 -2.4498,-4.13743c-0.5654,-1.69258 -0.8481,-3.57323 -0.8481,-5.64195c0,-1.69258 0.2827,-3.38517 0.7538,-4.88969c0.5654,-1.50452 1.3192,-2.82098 2.2614,-3.94937c1.0365,-1.12839 2.2614,-1.97468 3.6748,-2.63291c1.4134,-0.47016 3.0152,-0.75226 4.8055,-0.75226ZM230.628,35.6275c-2.0729,0 -3.769,0.56419 -4.9939,1.78661c-1.2249,1.22243 -1.9787,2.91501 -2.2614,5.07776l13.5684,0c0,-1.03436 -0.1885,-1.97468 -0.4712,-2.82097c-0.2826,-0.8463 -0.6595,-1.59856 -1.2249,-2.16275c-0.5653,-0.65823 -1.2249,-1.12839 -1.9787,-1.41049c-0.7538,-0.2821 -1.696,-0.47016 -2.6383,-0.47016Z" style="fill:#f6f5f6;"/><path d="M279.531,39.953c0,2.63291 -0.4711,4.98373 -1.3191,7.24051c-0.848,2.25678 -2.073,4.13743 -3.6748,5.73598c-1.6018,1.59855 -3.4863,2.91501 -5.6535,3.7613c-2.1672,0.940326 -4.617,1.31646 -7.3495,1.31646c-2.6383,0 -5.0882,-0.470163 -7.3496,-1.31646c-2.1671,-0.940325 -4.0516,-2.16275 -5.6535,-3.7613c-1.6018,-1.59855 -2.8267,-3.57324 -3.6747,-5.73598c-0.8481,-2.25678 -1.3192,-4.6076 -1.3192,-7.24051c0,-2.63291 0.4711,-4.98372 1.3192,-7.2405c0.848,-2.25678 2.0729,-4.13744 3.6747,-5.73599c1.6019,-1.59855 3.4864,-2.91501 5.6535,-3.7613c2.1672,-0.84629 4.6171,-1.31646 7.3496,-1.31646c1.7903,0 3.4863,0.18807 5.0881,0.65823c1.6018,0.37613 3.0152,1.03436 4.3344,1.78662c1.3191,0.75226 2.544,1.69259 3.5805,2.72694c1.0365,1.12839 1.9787,2.25679 2.7325,3.66727c0.7538,1.31646 1.3192,2.82098 1.6961,4.3255c0.3769,1.50452 0.5653,3.10308 0.5653,4.88969ZM272.841,39.953c0,-1.97468 -0.2827,-3.66727 -0.7538,-5.26582c-0.5654,-1.50452 -1.225,-2.82098 -2.2614,-3.94937c-0.9423,-1.03435 -2.1672,-1.88065 -3.4864,-2.44484c-1.4133,-0.5642 -2.9209,-0.8463 -4.7112,-0.8463c-1.696,0 -3.2979,0.2821 -4.7112,0.8463c-1.4134,0.56419 -2.5441,1.41049 -3.4864,2.44484c-0.9422,1.03436 -1.696,2.35082 -2.2614,3.94937c-0.5653,1.50452 -0.7538,3.29114 -0.7538,5.26582c0,1.97469 0.2827,3.66727 0.7538,5.26583c0.5654,1.50452 1.225,2.82097 2.2614,3.94936c0.9423,1.03436 2.1672,1.88065 3.4864,2.44485c1.4133,0.564195 2.9209,0.846293 4.7112,0.846293c1.6961,0 3.2979,-0.282098 4.7112,-0.846293c1.4134,-0.564196 2.5441,-1.41049 3.4864,-2.44485c0.9422,-1.03435 1.696,-2.35081 2.2614,-3.94936c0.4711,-1.59856 0.7538,-3.38518 0.7538,-5.26583ZM291.78,58.0072c-2.1672,0 -3.8632,-0.658228 -4.9939,-1.88065c-1.1307,-1.22242 -1.7903,-2.91501 -1.7903,-5.07776l0,-14.0109l-2.5441,0c-0.2827,0 -0.5653,-0.09403 -0.848,-0.28209c-0.2827,-0.18807 -0.3769,-0.5642 -0.3769,-0.94033l0,-2.44484l4.0517,-0.65823l1.3191,-6.86438c0.0942,-0.2821 0.2827,-0.56419 0.4711,-0.75226c0.1885,-0.18806 0.5654,-0.2821 0.8481,-0.2821l3.1094,0l0,7.89874l10.4589,0l1.3192,-6.86438c0.0942,-0.2821 0.1884,-0.56419 0.4711,-0.75226c0.1885,-0.18806 0.5654,-0.2821 0.9423,-0.2821l3.1094,0l0,7.89874l6.69,0l0,4.32549l-6.69,0l0,13.6347c0,0.752261 0.1884,1.41049 0.5653,1.88065c0.3769,0.470163 0.9423,0.658228 1.6019,0.658228c0.3769,0 0.6595,0 0.9422,-0.094033c0.2827,-0.094032 0.4711,-0.188065 0.6596,-0.282097c0.1884,-0.094033 0.3769,-0.188065 0.4711,-0.282098c0.1885,-0.094032 0.2827,-0.094032 0.4711,-0.094032c0.1885,0 0.2827,0 0.4712,0.094032c0.0942,0.094033 0.2826,0.188065 0.3769,0.37613l1.7902,2.91501c-0.848,0.752261 -1.8845,1.31646 -3.0152,1.69259c-1.1307,0.376131 -2.3556,0.564196 -3.5805,0.564196c-2.1672,0 -3.8632,-0.658228 -5.0882,-1.88065c-1.2249,-1.22242 -1.7902,-2.91501 -1.7902,-5.07776l0,-14.0108l-10.1763,0l0,13.5407c0,0.752261 0.1884,1.41049 0.5653,1.88065c0.3769,0.470163 0.9423,0.658228 1.6019,0.658228c0.3769,0 0.6595,0 0.9422,-0.094033c0.2827,-0.094032 0.4711,-0.188065 0.6596,-0.282097c0.1884,-0.094033 0.3769,-0.188065 0.4711,-0.282098c0.1885,-0.094032 0.2827,-0.094032 0.4711,-0.094032c0.1885,0 0.2827,0 0.4712,0.094032c0.0942,0.094033 0.2826,0.188065 0.3769,0.37613l1.7902,2.91501c-0.848,0.752261 -1.8845,1.31646 -3.0152,1.69259c-1.1307,0.282098 -2.2614,0.470163 -3.5805,0.470163ZM327.68,32.1483c1.6018,0 3.0152,0.2821 4.4285,0.75226c1.3192,0.47017 2.4499,1.22243 3.4864,2.25678c0.9422,0.94033 1.696,2.16275 2.2614,3.57324c0.5653,1.41049 0.848,3.00904 0.848,4.79566c0,0.94033 -0.0942,1.50452 -0.2827,1.88065c-0.1884,0.2821 -0.5653,0.47016 -1.1307,0.47016l-15.5471,0c0.0942,1.31646 0.2827,2.44485 0.6596,3.38518c0.3769,0.940325 0.848,1.69259 1.4134,2.35081c0.5653,0.658228 1.3191,1.03436 2.0729,1.41049c0.848,0.282098 1.6961,0.470163 2.7325,0.470163c0.9423,0 1.7903,-0.094033 2.5441,-0.376131c0.7538,-0.188065 1.3191,-0.470162 1.8845,-0.75226c0.5653,-0.282098 1.0365,-0.564195 1.4134,-0.75226c0.3769,-0.188065 0.7538,-0.376131 1.1307,-0.376131c0.4711,0 0.848,0.188066 1.1307,0.564196l1.696,2.16275c-0.6596,0.752261 -1.4134,1.41049 -2.2614,1.97468c-0.848,0.564195 -1.696,0.940325 -2.6383,1.31646c-0.9422,0.282097 -1.7903,0.564195 -2.7325,0.658228c-0.9423,0.0940326 -1.8845,0.188065 -2.7325,0.188065c-1.7903,0 -3.3921,-0.282098 -4.8997,-0.846293c-1.5076,-0.564196 -2.8268,-1.41049 -3.9575,-2.53888c-1.1307,-1.12839 -1.9787,-2.53888 -2.6383,-4.23147c-0.6595,-1.69259 -0.9422,-3.57324 -0.9422,-5.83002c0,-1.69258 0.2827,-3.29114 0.848,-4.79566c0.5654,-1.50452 1.3192,-2.82098 2.3556,-3.94937c1.0365,-1.12839 2.2614,-1.97468 3.769,-2.63291c1.5076,-0.84629 3.2037,-1.12839 5.0882,-1.12839ZM327.774,36.4738c-1.7903,0 -3.1094,0.47016 -4.1459,1.50452c-1.0365,1.03436 -1.6018,2.44485 -1.8845,4.23146l11.4012,0c0,-0.75226 -0.0942,-1.50452 -0.3769,-2.25678c-0.1884,-0.65822 -0.5653,-1.31645 -1.0365,-1.78661c-0.4711,-0.5642 -1.0364,-0.94033 -1.696,-1.22243c-0.5654,-0.37613 -1.3192,-0.47016 -2.2614,-0.47016ZM342.19,57.6311l0,-25.1067l3.5806,0c0.6595,0 1.0364,0.09403 1.3191,0.37613c0.2827,0.18807 0.3769,0.65823 0.4711,1.22243l0.3769,2.82097c0.7538,-1.50452 1.6961,-2.72694 2.8268,-3.57323c1.0365,-0.8463 2.3556,-1.31646 3.8632,-1.31646c1.1307,0 2.073,0.2821 2.8268,0.75226l-0.3769,4.51356c-0.0943,0.2821 -0.1885,0.47016 -0.3769,0.65823c-0.1885,0.09403 -0.3769,0.18807 -0.6596,0.18807c-0.2827,0 -0.5654,0 -1.1307,-0.09404c-0.4711,-0.09403 -0.9423,-0.09403 -1.4134,-0.09403c-0.6596,0 -1.2249,0.09403 -1.7903,0.2821c-0.5653,0.18806 -1.0364,0.47016 -1.4133,0.84629c-0.3769,0.37613 -0.7538,0.84629 -1.1307,1.31646c-0.2827,0.56419 -0.6596,1.12839 -0.9423,1.78661l0,15.4213l-6.0304,0Z" style="fill:#9ecab0;"/><path d="M370.901,32.9066l3.8857,0c0.5714,0 1.0476,-0.1619 1.4285,-0.48571c0.381,-0.32382 0.5715,-0.79048 0.5715,-1.4c0,-0.68572 -0.1715,-1.16826 -0.5143,-1.44762c-0.3429,-0.27937 -0.8381,-0.41905 -1.4857,-0.41905l-3.8857,0l0,3.75238ZM368.52,27.2113l6.6095,0c1.2191,0 2.1969,0.27936 2.9334,0.8381c0.7365,0.55873 1.1047,1.40317 1.1047,2.53333c0,0.68572 -0.1682,1.27301 -0.5047,1.76191c-0.3365,0.48889 -0.8159,0.86666 -1.4381,1.13333l0,0.03809c0.8381,0.17778 1.473,0.5746 1.9047,1.19048c0.4318,0.61588 0.6476,1.3873 0.6476,2.31429c0,0.53333 -0.0952,1.03174 -0.2857,1.49523c-0.1904,0.4635 -0.4889,0.86349 -0.8952,1.2c-0.4064,0.33651 -0.927,0.60318 -1.5619,0.8c-0.6349,0.19683 -1.3905,0.29524 -2.2667,0.29524l-6.2476,0l0,-13.6ZM370.901,38.8685l4.2095,0c0.7238,0 1.2857,-0.18729 1.6857,-0.5619c0.4,-0.37461 0.6,-0.90476 0.6,-1.59048c0,-0.67302 -0.2,-1.19047 -0.6,-1.55238c-0.4,-0.3619 -0.9619,-0.54285 -1.6857,-0.54285l-4.2095,0l0,4.24761ZM381.93,27.2113l9.7905,0l0,2.05714l-7.4095,0l0,3.56191l6.8571,0l0,1.94286l-6.8571,0l0,3.98095l7.5428,0l0,2.05714l-9.9238,0l0,-13.6ZM392.635,27.2113l11.0095,0l0,2.05714l-4.3238,0l0,11.5429l-2.3809,0l0,-11.5429l-4.3048,0l0,-2.05714ZM408.863,27.2113l2.5333,0l5.2381,13.6l-2.5524,0l-1.2762,-3.6l-5.4286,0l-1.2761,3.6l-2.4572,0l5.2191,-13.6ZM408.025,35.4018l4.1523,0l-2.038,-5.84762l-0.0572,0l-2.0571,5.84762Z" style="fill:#aebfce;"/></g></g></svg>
