<?xml version="1.0" standalone="no"?><!DOCTYPE svg PUBLIC "-//W3C//DTD SVG 1.1//EN" "http://www.w3.org/Graphics/SVG/1.1/DTD/svg11.dtd"><svg width="100%" height="100%" viewBox="0 0 120 120" version="1.1" xmlns="http://www.w3.org/2000/svg" xmlns:xlink="http://www.w3.org/1999/xlink" xml:space="preserve" style="fill-rule:evenodd;clip-rule:evenodd;stroke-linejoin:round;stroke-miterlimit:1.41421;"><g id="check-circle"><path id="Shape" d="M60,110c27.6142,0 50,-22.3858 50,-50c0,-27.6142 -22.3858,-50 -50,-50c-27.6142,0 -50,22.3858 -50,50c0,27.6142 22.3858,50 50,50ZM60,120c-33.1371,0 -60,-26.8629 -60,-60c0,-33.1371 26.8629,-60 60,-60c33.1371,0 60,26.8629 60,60c0,33.1371 -26.8629,60 -60,60Z" style="fill:#74aa8b;"/><path id="check" d="M52.7365,84.99c-1.55338,0 -3.02463,-0.724911 -3.96737,-1.97476l-12.7591,-16.8586c-1.66051,-2.18902 -1.22842,-5.30649 0.964167,-6.967c2.19616,-1.66765 5.31363,-1.22842 6.97414,0.964167l8.39539,11.0843l21.1081,-33.8958c1.45339,-2.32828 4.52444,-3.04248 6.85987,-1.58909c2.33186,1.44982 3.04962,4.52087 1.59266,6.8563l-24.9398,40.0308c-0.864179,1.39626 -2.36042,2.26758 -3.99951,2.34257c-0.0785617,0.007142 -0.149982,0.007142 -0.228543,0.007142Z" style="fill:#74aa8b;"/></g></svg>