<?xml version="1.0" standalone="no"?><!DOCTYPE svg PUBLIC "-//W3C//DTD SVG 1.1//EN" "http://www.w3.org/Graphics/SVG/1.1/DTD/svg11.dtd"><svg width="100%" height="100%" viewBox="0 0 180 180" version="1.1" xmlns="http://www.w3.org/2000/svg" xmlns:xlink="http://www.w3.org/1999/xlink" xml:space="preserve" style="fill-rule:evenodd;clip-rule:evenodd;stroke-linejoin:round;stroke-miterlimit:1.41421;"><g id="clock"><path id="Rectangle-10" d="M100,90l0,-30c-0.0656442,-5.49556 -4.57816,-10 -10,-10c-5.71233,0 -10.2236,4.49954 -10,10l0,30l-19,19c-3.98206,3.76222 -3.98492,10.1296 0,14c3.88812,3.98152 10.2683,3.98127 14,0l22,-21c1.89172,-2.568 3.33136,-5.78185 3,-9c-0.0656458,-0.781867 -0.0656442,-1.7127 0,-3Z" style="fill:#74aa8b;"/><path id="Shape" d="M90,160c38.6599,0 70,-31.3401 70,-70c0,-38.6599 -31.3401,-70 -70,-70c-38.6599,0 -70,31.3401 -70,70c0,38.6599 31.3401,70 70,70ZM90,180c-49.7056,0 -90,-40.2944 -90,-90c0,-49.7056 40.2944,-90 90,-90c49.7056,0 90,40.2944 90,90c0,49.7056 -40.2944,90 -90,90Z" style="fill:#74aa8b;"/></g></svg>