<?xml version="1.0" encoding="utf-8"?>
<!-- Generator: Adobe Illustrator 18.1.1, SVG Export Plug-In . SVG Version: 6.00 Build 0)  -->
<svg version="1.1" id="Layer_1" xmlns="http://www.w3.org/2000/svg" xmlns:xlink="http://www.w3.org/1999/xlink" x="0px" y="0px"
	 viewBox="0 0 960 560" enable-background="new 0 0 960 560" xml:space="preserve">
<g id="clock">
	<path id="Rectangle-10" fill="#3DB685" d="M511.1,280v-93.3c-0.2-17.1-14.2-31.1-31.1-31.1c-17.8,0-31.8,14-31.1,31.1V280
		l-59.1,59.1c-12.4,11.7-12.4,31.5,0,43.6c12.1,12.4,31.9,12.4,43.6,0l68.4-65.3c5.9-8,10.4-18,9.3-28
		C510.9,286.9,510.9,284,511.1,280z"/>
	<path id="Shape" fill="#3DB685" d="M480,497.8c120.3,0,217.8-97.5,217.8-217.8S600.3,62.2,480,62.2S262.2,159.7,262.2,280
		S359.7,497.8,480,497.8z M480,560c-154.6,0-280-125.4-280-280S325.4,0,480,0s280,125.4,280,280S634.6,560,480,560z"/>
</g>
</svg>
