<?xml version="1.0" standalone="no"?><!DOCTYPE svg PUBLIC "-//W3C//DTD SVG 1.1//EN" "http://www.w3.org/Graphics/SVG/1.1/DTD/svg11.dtd"><svg width="100%" height="100%" viewBox="0 0 80 79" version="1.1" xmlns="http://www.w3.org/2000/svg" xmlns:xlink="http://www.w3.org/1999/xlink" xml:space="preserve" style="fill-rule:evenodd;clip-rule:evenodd;stroke-linejoin:round;stroke-miterlimit:1.41421;"><g><path d="M16.7739,72.573c-10.5845,-7.19662 -16.7739,-18.8088 -16.7739,-32.573c0,-22.0914 17.9086,-40 40,-40c22.0914,0 40,17.9086 40,40c0,13.3485 -6.53852,25.1698 -16.5875,32.4357c-0.0600405,0.0434122 -0.120206,0.0866618 -0.180497,0.129748c-1.58828,-5.46727 -2.11761,-11.7097 -1.24866,-14.3165c1.4,-4.1 4.9,-12.3 4.9,-16.9c0,-2.1 -0.3,-4.1 -0.8,-6.1c0.7,-0.4 1.4,-0.9 1.9,-1.7c1.4,-1.9 1.3,-4.4 -0.2,-5.4c-0.993429,-0.695401 -3.32696,-0.803287 -4.68348,0.478339l0.00353589,0.00533378l-0.00916751,0l0.00271362,-0.00257957l0.00291799,-0.00275422c-1.26939,-1.91545 -2.77228,-3.66268 -4.46809,-5.20108c-4.78744,-4.41228 -11.3174,-7.12387 -18.6315,-7.17639l0,-5.7412e-06l-0.00028681,2.8706e-06l-0.00028681,-2.8706e-06l0,5.7412e-06c-7.3141,0.0525205 -13.8441,2.76411 -18.6315,7.17639c-1.69581,1.5384 -3.19869,3.28564 -4.46809,5.20108l0.00563162,0.00533378l-0.00916751,0l0.000543783,-0.000821768l0.00299211,-0.00451202c-1.35652,-1.28163 -3.69005,-1.17374 -4.68348,-0.478339c-1.5,1 -1.6,3.5 -0.2,5.4c0.5,0.8 1.2,1.3 1.9,1.7c-0.5,2 -0.8,4 -0.8,6.1c0,4.6 3.5,12.8 4.9,16.9c0.86897,2.60691 0.33959,8.84953 -1.24866,14.3165c-0.00313325,0.0107851 -0.252471,-0.168125 0.00596338,0.00758521l-3.2753e-05,-3.3192e-05Z" style="fill:#aebfce;"/><g><path d="M22.3723,75.9161c0.00201039,-0.00810849 -3.01753,-1.50183 -5.60436,-3.35065c1.58825,-5.46697 2.11763,-11.7096 1.24866,-14.3165c-1.4,-4.1 -4.9,-12.3 -4.9,-16.9c0,-2.1 0.3,-4.1 0.8,-6.1c-0.7,-0.4 -1.4,-0.9 -1.9,-1.7c-1.4,-1.9 -1.3,-4.4 0.2,-5.4c0.993429,-0.695401 3.32696,-0.803287 4.68348,0.478339l-0.00299211,0.00451202l-0.000543783,0.000821768l0.00916751,0l-0.00271362,-0.00257957l-0.00291799,-0.00275422c1.26939,-1.91545 2.77228,-3.66268 4.46809,-5.20108c4.78744,-4.41228 11.3174,-7.12387 18.6315,-7.17639l0,-5.7412e-06l0.00028681,2.8706e-06l0.00028681,-2.8706e-06l0,5.7412e-06c7.3141,0.0525205 13.8441,2.76411 18.6315,7.17639c1.69581,1.5384 3.19869,3.28564 4.46809,5.20108l-0.00291799,0.00275422l-0.00271362,0.00257957l0.00916751,0l-0.00353589,-0.00533378c1.35652,-1.28163 3.69005,-1.17374 4.68348,-0.478339c1.5,1 1.6,3.5 0.2,5.4c-0.5,0.8 -1.2,1.3 -1.9,1.7c0.5,2 0.8,4 0.8,6.1c0,4.6 -3.5,12.8 -4.9,16.9c-0.868978,2.60694 -0.33958,8.84965 1.24869,14.3166c-1.76647,1.26247 -3.63997,2.38479 -5.60437,3.35064c-1.05028,-4.23622 -1.48908,-8.55891 -0.618789,-12.0401c0.7,-2.9 3.5,-7.8 2.8,-13.1c-0.5,-3.5 -2.7,-7.8 -8.1,-9.4c-1.3,-0.4 -3.4,-0.7 -5.8,-1c-0.1,0.5 -0.3,0.9 -0.6,1.3c-0.4,0.5 -0.816499,0.866655 -1.8165,0.966655c-0.306332,0.0306332 -0.674122,0.209611 -0.857571,0.481264c-0.363917,0.538891 -0.988275,2.1434 -1.32593,2.75208c-0.184364,0.332347 -0.4,0.7 -0.7,0.9l0,2.4c1.1,1.4 2.3,2.2 3.6,2.2c2.3,0 4.1,-2.4 4.1,-2.4l1.1,0.8c-0.1,0.1 -2.2,2.9 -5.1,2.9c-1.6,0 -3,-0.8 -4.3,-2.3c-0.00356606,0.00411469 -0.0142205,0.00411469 -0.0177866,0c-1.3,1.5 -2.7,2.3 -4.3,2.3c-2.9,0 -5,-2.8 -5.1,-2.9l1.1,-0.8c0,0 1.8,2.4 4.1,2.4c1.3,0 2.5,-0.8 3.6,-2.2l0,-2.4c-0.3,-0.2 -0.515636,-0.567653 -0.7,-0.9c-0.337655,-0.60868 -0.962013,-2.21319 -1.32593,-2.75208c-0.183449,-0.271653 -0.551239,-0.450631 -0.857571,-0.481264c-1,-0.1 -1.4165,-0.466655 -1.8165,-0.966655c-0.3,-0.4 -0.5,-0.8 -0.6,-1.3c-2.4,0.3 -4.5,0.6 -5.8,1c-5.4,1.6 -7.6,5.9 -8.1,9.4c-0.7,5.3 2.1,10.2 2.8,13.1c0.870307,3.48123 0.431468,7.80405 -0.618769,12.04l1.2963e-05,9.992e-06Z" style="fill:#3b3735;"/><path d="M27.1968,32.8109c1.1,0 2,-0.9 2,-2.1c0,-1.2 -0.9,-2.1 -2,-2.1c-1.1,0 -2,0.9 -2,2.1c0,1.1 0.9,2.1 2,2.1Z" style="fill:#fff;fill-rule:nonzero;"/><path d="M52.8032,32.8109c-1.1,0 -2,-0.9 -2,-2.1c0,-1.2 0.9,-2.1 2,-2.1c1.1,0 2,0.9 2,2.1c0,1.1 -0.9,2.1 -2,2.1Z" style="fill:#fff;fill-rule:nonzero;"/><path d="M57.6277,75.9162c-5.31798,2.6151 -11.3013,4.08377 -17.6277,4.08377c-6.32639,0 -12.3097,-1.46868 -17.6277,-4.08392c1.05024,-4.23591 1.48908,-8.55873 0.618769,-12.04c-0.7,-2.9 -3.5,-7.8 -2.8,-13.1c0.5,-3.5 2.7,-7.8 8.1,-9.4c1.3,-0.4 3.4,-0.7 5.8,-1c0.1,0.5 0.3,0.9 0.6,1.3c0.4,0.5 0.816499,0.866655 1.8165,0.966655c0.306332,0.0306332 0.674122,0.209611 0.857571,0.481264c0.363917,0.538891 0.988275,2.1434 1.32593,2.75208c0.184364,0.332347 0.4,0.7 0.7,0.9l0,2.4c-1.1,1.4 -2.3,2.2 -3.6,2.2c-2.3,0 -4.1,-2.4 -4.1,-2.4l-1.1,0.8c0.1,0.1 2.2,2.9 5.1,2.9c1.6,0 3,-0.8 4.3,-2.3c0.00356606,0.00411469 0.0142205,0.00411469 0.0177866,0c1.3,1.5 2.7,2.3 4.3,2.3c2.9,0 5,-2.8 5.1,-2.9l-1.1,-0.8c0,0 -1.8,2.4 -4.1,2.4c-1.3,0 -2.5,-0.8 -3.6,-2.2l0,-2.4c0.3,-0.2 0.515636,-0.567653 0.7,-0.9c0.337655,-0.60868 0.962013,-2.21319 1.32593,-2.75208c0.183449,-0.271653 0.551239,-0.450631 0.857571,-0.481264c1,-0.1 1.4165,-0.466655 1.8165,-0.966655c0.3,-0.4 0.5,-0.8 0.6,-1.3c2.4,0.3 4.5,0.6 5.8,1c5.4,1.6 7.6,5.9 8.1,9.4c0.7,5.3 -2.1,10.2 -2.8,13.1c-0.870307,3.48123 -0.431468,7.80405 0.618803,12.0401l3.94e-05,5e-05Z" style="fill:#fff;"/><path d="M40.3032,28.584c-0.200565,-0.0155376 -0.405775,-0.0167537 -0.60634,0c-0.268854,0.0224581 -0.8,0.1 -1,0.2c0.2,2.4 0.1,3.4 -0.3,5.2c-1.5,0.6 -2.9,2 -3.7,3.1c-0.0510519,0.0701963 -0.2,0.1 -0.3,0.1c-2.4,0.2 -4.8,0.3 -7.2,0.3c-2.3,0 -4.7,-0.1 -7.1,-0.3c-1.9,-0.1 -3.7,-1.5 -4,-3c-0.5,-2 -0.5,-4.1 -0.2,-6.2c0.1,-0.4 0.1,-0.7 0.2,-1.1c0.3,-1.5 2.1,-2.8 4,-3l0.1,0c2.4,-0.2 4.8,-0.3 7.1,-0.3c2.4,0 4.8,0.1 7.2,0.3c1.9,0.1 3.7,1.5 4,3c0.0385102,0.192551 0.0256538,0.19469 0.1,0.2c0.233333,0.0166667 0.8,-0.1 1.3,-0.1l0.10317,0.000107693l0.10317,-0.000107693c0.5,0 0.9,0 1.3,0.1c-0.000188145,-4.70363e-05 0.0542612,0.0286938 0.1,-0.2c0.3,-1.5 2.1,-2.9 4,-3c2.4,-0.2 4.8,-0.3 7.2,-0.3c2.3,0 4.7,0.1 7.1,0.3l0.1,0c1.9,0.2 3.7,1.5 4,3c0.1,0.4 0.1,0.7 0.2,1.1c0.3,2.1 0.3,4.2 -0.2,6.2c-0.3,1.5 -2.1,2.9 -4,3c-2.4,0.2 -4.8,0.3 -7.1,0.3c-2.4,0 -4.8,-0.1 -7.2,-0.3c-0.1,0 -0.240134,-0.0176843 -0.3,-0.1c-0.8,-1.1 -2.2,-2.5 -3.7,-3.1c-0.4,-1.8 -0.5,-2.8 -0.3,-5.2c-0.2,-0.1 -0.731015,-0.179162 -1,-0.2l0,-3.55271e-15ZM43.6032,33.984c0.2,0.7 1.2,1.5 2.1,1.6c2.3,0.2 4.6,0.3 6.9,0.3c2.3,0 4.6,-0.1 6.9,-0.3c0.9,-0.1 2,-0.9 2.1,-1.6c0.5,-2.2 0.5,-4.5 0,-6.7c-0.2,-0.7 -1.2,-1.5 -2.1,-1.6c-2.3,-0.2 -4.6,-0.3 -6.9,-0.3c-2.3,0 -4.6,0.1 -6.9,0.3c-0.9,0.1 -2,0.9 -2.1,1.6c-0.4,2.2 -0.4,4.5 0,6.7ZM36.3968,33.984c-0.2,0.7 -1.2,1.5 -2.1,1.6c-2.3,0.2 -4.6,0.3 -6.9,0.3c-2.3,0 -4.6,-0.1 -6.9,-0.3c-0.9,-0.1 -2,-0.9 -2.1,-1.6c-0.5,-2.2 -0.5,-4.5 0,-6.7c0.2,-0.7 1.2,-1.5 2.1,-1.6c2.3,-0.2 4.6,-0.3 6.9,-0.3c2.3,0 4.6,0.1 6.9,0.3c0.9,0.1 2,0.9 2.1,1.6c0.4,2.2 0.4,4.5 0,6.7Z" style="fill:#74aa8b;"/></g></g></svg>