<?xml version="1.0" standalone="no"?>
<!DOCTYPE svg PUBLIC "-//W3C//DTD SVG 1.1//EN" "http://www.w3.org/Graphics/SVG/1.1/DTD/svg11.dtd">
<svg width="357" height="79" viewBox="0 0 357 79" version="1.1" xmlns="http://www.w3.org/2000/svg" xmlns:xlink="http://www.w3.org/1999/xlink" xml:space="preserve" style="fill-rule:evenodd;clip-rule:evenodd;stroke-linejoin:round;stroke-miterlimit:1.41421;">
    <g>
        <path d="M16.7739,72.573C6.1894,65.3764 0,53.7642 0,40C0,17.9086 17.9086,-7.10543e-15 40,-7.10543e-15C62.0914,-7.10543e-15 80,17.9086 80,40C80,53.3485 73.4615,65.1698 63.4125,72.4357C63.3525,72.4791 63.2923,72.5224 63.232,72.5654C61.6437,67.0982 61.1144,60.8557 61.9833,58.2489C63.3833,54.1489 66.8833,45.9489 66.8833,41.3489C66.8833,39.2489 66.5833,37.2489 66.0833,35.2489C66.7833,34.8489 67.4833,34.3489 67.9833,33.5489C69.3833,31.6489 69.2833,29.1489 67.7833,28.1489C66.7899,27.4535 64.4564,27.3457 63.0999,28.6273L63.1034,28.6326L63.0942,28.6326L63.0969,28.63L63.0999,28.6273C61.8305,26.7118 60.3276,24.9646 58.6318,23.4262C53.8443,19.0139 47.3144,16.3023 40.0003,16.2498L40.0003,16.2498L40,16.2498L39.9997,16.2498L39.9997,16.2498C32.6856,16.3023 26.1556,19.0139 21.3682,23.4262C19.6724,24.9646 18.1695,26.7118 16.9001,28.6273L16.9057,28.6326L16.8966,28.6326L16.8971,28.6318L16.9001,28.6273C15.5436,27.3457 13.2101,27.4535 12.2166,28.1489C10.7166,29.1489 10.6166,31.6489 12.0166,33.5489C12.5166,34.3489 13.2166,34.8489 13.9166,35.2489C13.4166,37.2489 13.1166,39.2489 13.1166,41.3489C13.1166,45.9489 16.6166,54.1489 18.0166,58.2489C18.8856,60.8559 18.3562,67.0985 16.768,72.5654C16.7648,72.5762 16.5155,72.3973 16.7739,72.573L16.7739,72.573Z" style="fill:rgb(215,215,215);"/>
        <g>
            <path d="M22.3723,75.9161C22.3743,75.908 19.3548,74.4143 16.7679,72.5654C18.3562,67.0985 18.8856,60.8558 18.0166,58.249C16.6166,54.1489 13.1166,45.9489 13.1166,41.349C13.1166,39.249 13.4166,37.249 13.9166,35.249C13.2166,34.849 12.5166,34.349 12.0166,33.5489C10.6166,31.6489 10.7166,29.1489 12.2166,28.1489C13.21,27.4535 15.5436,27.3457 16.9001,28.6273L16.8971,28.6318L16.8965,28.6326L16.9057,28.6326L16.903,28.63L16.9001,28.6273C18.1695,26.7118 19.6724,24.9646 21.3682,23.4262C26.1556,19.0139 32.6856,16.3023 39.9997,16.2498L39.9997,16.2498L40,16.2498L40.0002,16.2498L40.0002,16.2498C47.3143,16.3023 53.8443,19.0139 58.6317,23.4262C60.3276,24.9646 61.8304,26.7118 63.0998,28.6273L63.0969,28.63L63.0942,28.6326L63.1034,28.6326L63.0998,28.6273C64.4564,27.3457 66.7899,27.4535 67.7833,28.149C69.2833,29.149 69.3833,31.649 67.9833,33.549C67.4833,34.349 66.7833,34.849 66.0833,35.249C66.5833,37.249 66.8833,39.249 66.8833,41.349C66.8833,45.949 63.3833,54.149 61.9833,58.249C61.1143,60.8559 61.6437,67.0986 63.232,72.5656C61.4655,73.828 59.592,74.9503 57.6276,75.9162C56.5774,71.68 56.1386,67.3573 57.0088,63.8761C57.7088,60.9761 60.5088,56.0761 59.8088,50.7761C59.3088,47.2761 57.1088,42.9761 51.7088,41.3761C50.4088,40.9761 48.3088,40.6761 45.9088,40.3761C45.8088,40.8761 45.6088,41.2761 45.3088,41.6761C44.9088,42.1761 44.4923,42.5427 43.4923,42.6427C43.186,42.6734 42.8182,42.8524 42.6348,43.124C42.2709,43.6629 41.6465,45.2674 41.3088,45.8761C41.1245,46.2084 40.9088,46.5761 40.6088,46.7761L40.6088,49.1761C41.7088,50.5761 42.9088,51.3761 44.2088,51.3761C46.5088,51.3761 48.3088,48.9761 48.3088,48.9761L49.4088,49.7761C49.3088,49.8761 47.2088,52.6761 44.3088,52.6761C42.7088,52.6761 41.3088,51.8761 40.0088,50.3761C40.0053,50.3802 39.9946,50.3802 39.9911,50.3761C38.6911,51.8761 37.2911,52.6761 35.6911,52.6761C32.7911,52.6761 30.6911,49.8761 30.5911,49.7761L31.6911,48.9761C31.6911,48.9761 33.4911,51.3761 35.7911,51.3761C37.0911,51.3761 38.2911,50.5761 39.3911,49.1761L39.3911,46.7761C39.0911,46.5761 38.8754,46.2084 38.6911,45.8761C38.3534,45.2674 37.729,43.6629 37.3651,43.124C37.1817,42.8524 36.8139,42.6734 36.5076,42.6427C35.5076,42.5427 35.0911,42.1761 34.6911,41.6761C34.3911,41.2761 34.1911,40.8761 34.0911,40.3761C31.6911,40.6761 29.5911,40.9761 28.2911,41.3761C22.8911,42.9761 20.6911,47.2761 20.1911,50.7761C19.4911,56.0761 22.2911,60.9761 22.9911,63.8761C23.8614,67.3573 23.4225,71.6801 22.3723,75.9161L22.3723,75.9161Z" style="fill:rgb(59,55,53);"/>
            <path d="M27.1968,32.8109C28.2968,32.8109 29.1968,31.9109 29.1968,30.7109C29.1968,29.5109 28.2968,28.6109 27.1968,28.6109C26.0968,28.6109 25.1968,29.5109 25.1968,30.7109C25.1968,31.8109 26.0968,32.8109 27.1968,32.8109Z" style="fill:white;fill-rule:nonzero;"/>
            <path d="M52.8032,32.8109C51.7032,32.8109 50.8032,31.9109 50.8032,30.7109C50.8032,29.5109 51.7032,28.6109 52.8032,28.6109C53.9032,28.6109 54.8032,29.5109 54.8032,30.7109C54.8032,31.8109 53.9032,32.8109 52.8032,32.8109Z" style="fill:white;fill-rule:nonzero;"/>
            <path d="M57.6277,75.9162C52.3097,78.5313 46.3264,80 40,80C33.6736,80 27.6903,78.5313 22.3723,75.916C23.4225,71.6801 23.8614,67.3573 22.9911,63.876C22.2911,60.9761 19.4911,56.0761 20.1911,50.776C20.6911,47.276 22.8911,42.9761 28.2911,41.376C29.5911,40.9761 31.6911,40.676 34.0911,40.376C34.1911,40.876 34.3911,41.276 34.6911,41.676C35.0911,42.176 35.5076,42.5427 36.5076,42.6427C36.8139,42.6733 37.1817,42.8523 37.3651,43.124C37.7291,43.6629 38.3534,45.2674 38.6911,45.876C38.8754,46.2084 39.0911,46.576 39.3911,46.776L39.3911,49.176C38.2911,50.576 37.0911,51.376 35.7911,51.376C33.4911,51.376 31.6911,48.976 31.6911,48.976L30.5911,49.776C30.6911,49.876 32.7911,52.676 35.6911,52.676C37.2911,52.676 38.6911,51.876 39.9911,50.376C39.9946,50.3802 40.0053,50.3802 40.0089,50.376C41.3089,51.876 42.7089,52.676 44.3089,52.676C47.2089,52.676 49.3089,49.876 49.4089,49.776L48.3089,48.976C48.3089,48.976 46.5089,51.376 44.2089,51.376C42.9089,51.376 41.7089,50.576 40.6089,49.176L40.6089,46.776C40.9089,46.576 41.1245,46.2084 41.3089,45.876C41.6465,45.2674 42.2709,43.6629 42.6348,43.124C42.8182,42.8523 43.186,42.6733 43.4924,42.6427C44.4924,42.5427 44.9089,42.176 45.3089,41.676C45.6089,41.276 45.8089,40.876 45.9089,40.376C48.3089,40.676 50.4089,40.9761 51.7089,41.376C57.1089,42.9761 59.3089,47.276 59.8089,50.776C60.5089,56.076 57.7089,60.9761 57.0089,63.876C56.1386,67.3573 56.5774,71.6801 57.6277,75.9162L57.6277,75.9162Z" style="fill:white;"/>
            <path d="M40.3032,28.584C40.1026,28.5685 39.8974,28.5672 39.6969,28.584C39.428,28.6065 38.8969,28.684 38.6969,28.784C38.8969,31.184 38.7969,32.184 38.3969,33.984C36.8969,34.584 35.4969,35.984 34.6969,37.084C34.6458,37.1542 34.4969,37.184 34.3969,37.184C31.9969,37.384 29.5969,37.484 27.1969,37.484C24.8969,37.484 22.4969,37.384 20.0969,37.184C18.1969,37.084 16.3969,35.684 16.0969,34.184C15.5969,32.184 15.5969,30.084 15.8969,27.984C15.9969,27.584 15.9969,27.284 16.0969,26.884C16.3969,25.384 18.1969,24.084 20.0969,23.884L20.1969,23.884C22.5969,23.684 24.9969,23.584 27.2969,23.584C29.6969,23.584 32.0969,23.684 34.4969,23.884C36.3969,23.984 38.1969,25.384 38.4969,26.884C38.5354,27.0766 38.5225,27.0787 38.5969,27.084C38.8302,27.1007 39.3969,26.984 39.8969,26.984L40,26.9841L40.1032,26.984C40.6032,26.984 41.0032,26.984 41.4032,27.084C41.403,27.084 41.4575,27.1127 41.5032,26.884C41.8032,25.384 43.6032,23.984 45.5032,23.884C47.9032,23.684 50.3032,23.584 52.7032,23.584C55.0032,23.584 57.4032,23.684 59.8032,23.884L59.9032,23.884C61.8032,24.084 63.6032,25.384 63.9032,26.884C64.0032,27.284 64.0032,27.584 64.1032,27.984C64.4032,30.084 64.4032,32.184 63.9032,34.184C63.6032,35.684 61.8032,37.084 59.9032,37.184C57.5032,37.384 55.1032,37.484 52.8032,37.484C50.4032,37.484 48.0032,37.384 45.6032,37.184C45.5032,37.184 45.3631,37.1663 45.3032,37.084C44.5032,35.984 43.1032,34.584 41.6032,33.984C41.2032,32.184 41.1032,31.184 41.3032,28.784C41.1032,28.684 40.5722,28.6048 40.3032,28.584L40.3032,28.584ZM43.6032,33.984C43.8032,34.684 44.8032,35.484 45.7032,35.584C48.0032,35.784 50.3032,35.884 52.6032,35.884C54.9032,35.884 57.2032,35.784 59.5032,35.584C60.4032,35.484 61.5032,34.684 61.6032,33.984C62.1032,31.784 62.1032,29.484 61.6032,27.284C61.4032,26.584 60.4032,25.784 59.5032,25.684C57.2032,25.484 54.9032,25.384 52.6032,25.384C50.3032,25.384 48.0032,25.484 45.7032,25.684C44.8032,25.784 43.7032,26.584 43.6032,27.284C43.2032,29.484 43.2032,31.784 43.6032,33.984ZM36.3968,33.984C36.1968,34.684 35.1968,35.484 34.2968,35.584C31.9968,35.784 29.6968,35.884 27.3968,35.884C25.0968,35.884 22.7968,35.784 20.4968,35.584C19.5968,35.484 18.4968,34.684 18.3968,33.984C17.8968,31.784 17.8968,29.484 18.3968,27.284C18.5968,26.584 19.5968,25.784 20.4968,25.684C22.7968,25.484 25.0968,25.384 27.3968,25.384C29.6968,25.384 31.9968,25.484 34.2968,25.684C35.1968,25.784 36.2968,26.584 36.3968,27.284C36.7968,29.484 36.7968,31.784 36.3968,33.984Z" style="fill:rgb(116,170,139);"/>
        </g>
    </g>
    <g>
        <path d="M117.841,57.0669C115.862,57.7251 113.601,58.0072 111.245,58.0072C108.419,58.0072 105.874,57.5371 103.613,56.6908C101.352,55.8445 99.3729,54.622 97.7711,53.0235C96.1693,51.4249 94.9443,49.5443 94.0963,47.3815C93.2483,45.2188 92.7772,42.7739 92.7772,40.141C92.7772,37.5081 93.1541,35.0633 94.0021,32.8065C94.8501,30.6437 96.075,28.7631 97.5826,27.1645C99.0902,25.566 101.069,24.3436 103.236,23.4973C105.498,22.651 107.947,22.1808 110.68,22.1808C112.093,22.1808 113.318,22.2748 114.543,22.4629C115.768,22.651 116.805,22.9331 117.841,23.3092C118.877,23.6853 119.82,24.1555 120.668,24.7197C121.516,25.2839 122.364,25.8481 123.118,26.6003L121.798,28.7631C121.61,29.0452 121.327,29.3273 120.95,29.4213C120.574,29.5154 120.197,29.4213 119.82,29.2333C119.443,29.0452 118.972,28.7631 118.501,28.387C118.029,28.1049 117.37,27.7287 116.616,27.4466C115.862,27.1645 115.014,26.8824 114.072,26.6944C113.13,26.5063 111.905,26.4123 110.586,26.4123C108.607,26.4123 106.817,26.6944 105.215,27.3526C103.613,28.0108 102.294,28.9512 101.163,30.0796C100.032,31.302 99.1845,32.7125 98.5249,34.405C97.9595,36.0976 97.5826,37.9783 97.5826,40.141C97.5826,42.3038 97.8653,44.2785 98.5249,46.0651C99.1845,47.7577 100.032,49.2622 101.257,50.4846C102.388,51.707 103.801,52.6474 105.498,53.3056C107.194,53.9638 109.078,54.2459 111.151,54.2459C111.999,54.2459 112.753,54.1519 113.412,54.0579C114.166,53.9638 114.826,53.8698 115.485,53.6817C116.145,53.4937 116.805,53.3056 117.37,53.0235C117.935,52.7414 118.595,52.4593 119.254,52.1772L119.254,44.4665L113.789,44.4665C113.507,44.4665 113.224,44.3725 113.036,44.1844C112.847,43.9964 112.753,43.8083 112.753,43.5262L112.753,40.7993L123.589,40.7993L123.589,54.246C121.704,55.4684 119.82,56.4087 117.841,57.067L117.841,57.0669ZM127.829,57.6311L127.829,32.8065L130.373,32.8065C130.844,32.8065 131.127,32.9005 131.315,33.0886C131.504,33.2767 131.598,33.5588 131.692,34.0289L131.975,37.7902C132.729,36.0976 133.765,34.7812 134.896,33.8409C136.027,32.9005 137.44,32.4304 139.136,32.4304C139.701,32.4304 140.172,32.5244 140.644,32.6184C141.115,32.7125 141.586,32.9005 141.963,33.1826L141.68,36.4738C141.586,36.8499 141.303,37.132 140.926,37.132C140.738,37.132 140.361,37.038 139.89,36.9439C139.419,36.8499 138.948,36.7559 138.382,36.7559C137.628,36.7559 136.875,36.8499 136.309,37.132C135.65,37.4141 135.179,37.6962 134.613,38.1664C134.142,38.6365 133.671,39.2007 133.294,39.8589C132.917,40.5172 132.54,41.2694 132.258,42.1157L132.258,57.8191L127.829,57.8191L127.829,57.6311L127.829,57.6311ZM154.212,32.4304C156.002,32.4304 157.698,32.7125 159.112,33.3707C160.525,33.9349 161.844,34.8753 162.881,35.9096C163.917,37.038 164.671,38.3545 165.236,39.953C165.802,41.5516 166.084,43.2441 166.084,45.2188C166.084,47.1935 165.802,48.9801 165.236,50.4847C164.671,52.0832 163.917,53.3997 162.881,54.5281C161.844,55.6564 160.619,56.5027 159.112,57.0669C157.698,57.6311 156.002,57.9132 154.212,57.9132C152.422,57.9132 150.726,57.6311 149.312,57.0669C147.805,56.5027 146.58,55.6564 145.543,54.5281C144.507,53.3997 143.753,52.0832 143.188,50.4847C142.622,48.8861 142.34,47.1935 142.34,45.2188C142.34,43.2441 142.622,41.5516 143.188,39.953C143.753,38.3544 144.507,37.038 145.543,35.9096C146.58,34.7812 147.805,33.9349 149.312,33.3707C150.726,32.7125 152.327,32.4304 154.212,32.4304ZM154.212,54.528C156.662,54.528 158.452,53.6817 159.677,52.0831C160.902,50.4846 161.467,48.1338 161.467,45.2188C161.467,42.3038 160.902,39.9529 159.677,38.3544C158.452,36.6618 156.662,35.9095 154.212,35.9095C152.987,35.9095 151.856,36.0976 151.008,36.5678C150.066,37.0379 149.312,37.6021 148.747,38.4484C148.087,39.2007 147.71,40.2351 147.334,41.3634C147.051,42.4918 146.862,43.8083 146.862,45.3128C146.862,48.2278 147.428,50.5786 148.653,52.1772C149.878,53.7757 151.668,54.528 154.212,54.528L154.212,54.528ZM181.066,32.4304C182.856,32.4304 184.552,32.7125 185.966,33.3707C187.379,33.9349 188.698,34.8753 189.735,35.9096C190.771,37.038 191.525,38.3545 192.09,39.953C192.656,41.5516 192.938,43.2441 192.938,45.2188C192.938,47.1935 192.656,48.9801 192.09,50.4847C191.525,52.0832 190.771,53.3997 189.735,54.5281C188.698,55.6564 187.473,56.5027 185.966,57.0669C184.552,57.6311 182.856,57.9132 181.066,57.9132C179.276,57.9132 177.58,57.6311 176.166,57.0669C174.659,56.5027 173.434,55.6564 172.397,54.5281C171.361,53.3997 170.607,52.0832 170.042,50.4847C169.476,48.8861 169.194,47.1935 169.194,45.2188C169.194,43.2441 169.476,41.5516 170.042,39.953C170.607,38.3544 171.361,37.038 172.397,35.9096C173.434,34.7812 174.659,33.9349 176.166,33.3707C177.58,32.7125 179.182,32.4304 181.066,32.4304ZM181.066,54.528C183.516,54.528 185.306,53.6817 186.531,52.0831C187.756,50.4846 188.321,48.1338 188.321,45.2188C188.321,42.3038 187.756,39.9529 186.531,38.3544C185.306,36.6618 183.516,35.9095 181.066,35.9095C179.841,35.9095 178.71,36.0976 177.862,36.5678C176.92,37.0379 176.166,37.6021 175.601,38.4484C174.941,39.2007 174.564,40.2351 174.188,41.3634C173.905,42.4918 173.716,43.8083 173.716,45.3128C173.716,48.2278 174.282,50.5786 175.507,52.1772C176.732,53.7757 178.522,54.528 181.066,54.528L181.066,54.528ZM193.786,32.8065L197.367,32.8065C197.743,32.8065 198.026,32.9005 198.215,33.0886C198.403,33.2767 198.591,33.4647 198.686,33.7468L204.999,49.7323C205.187,50.2965 205.376,50.9548 205.47,51.519C205.658,52.0831 205.753,52.6473 205.847,53.2115C205.941,52.6473 206.129,52.0832 206.224,51.519C206.412,50.9548 206.506,50.3906 206.789,49.7323L213.196,33.7468C213.291,33.4647 213.479,33.2767 213.667,33.0886C213.856,32.9005 214.139,32.8065 214.515,32.8065L217.908,32.8065L207.826,57.6311L203.962,57.6311L193.786,32.8065L193.786,32.8065ZM230.534,32.4304C232.042,32.4304 233.361,32.7125 234.68,33.1827C235.905,33.6528 237.036,34.4051 237.978,35.3454C238.92,36.2857 239.58,37.4141 240.145,38.8246C240.71,40.2351 240.899,41.7396 240.899,43.5262C240.899,44.1845 240.805,44.6546 240.71,44.9367C240.522,45.1248 240.239,45.3129 239.862,45.3129L223.279,45.3129C223.279,46.9114 223.561,48.2279 223.938,49.3563C224.315,50.4847 224.881,51.519 225.54,52.2713C226.2,53.0235 227.048,53.5877 227.99,53.9639C228.932,54.34 229.969,54.5281 231.194,54.5281C232.324,54.5281 233.267,54.434 234.02,54.1519C234.774,53.8698 235.528,53.5877 236.093,53.3056C236.659,53.0235 237.13,52.7414 237.507,52.4593C237.884,52.1772 238.26,52.0832 238.543,52.0832C238.92,52.0832 239.203,52.1772 239.391,52.4593L240.616,54.0579C240.051,54.7161 239.391,55.2803 238.637,55.7505C237.883,56.2206 237.036,56.5968 236.188,56.9729C235.339,57.255 234.397,57.5371 233.549,57.6311C232.701,57.7252 231.759,57.8192 230.817,57.8192C229.121,57.8192 227.519,57.5371 226.105,56.9729C224.692,56.4087 223.373,55.5624 222.336,54.434C221.3,53.3056 220.452,51.8951 219.887,50.2966C219.321,48.604 219.039,46.7234 219.039,44.6546C219.039,42.9621 219.321,41.2695 219.792,39.765C220.358,38.2604 221.112,36.944 222.054,35.8156C223.09,34.6872 224.315,33.8409 225.729,33.1827C227.142,32.7125 228.744,32.4304 230.534,32.4304L230.534,32.4304ZM230.628,35.6275C228.555,35.6275 226.859,36.1917 225.634,37.4141C224.409,38.6365 223.655,40.3291 223.373,42.4919L236.941,42.4919C236.941,41.4575 236.753,40.5172 236.47,39.6709C236.187,38.8246 235.81,38.0723 235.245,37.5081C234.68,36.8499 234.02,36.3798 233.266,36.0977C232.512,35.8156 231.57,35.6275 230.628,35.6275L230.628,35.6275Z" style="fill:rgb(59,55,53);"/>
        <path d="M279.531,39.953C279.531,42.5859 279.06,44.9367 278.212,47.1935C277.364,49.4503 276.139,51.3309 274.537,52.9295C272.935,54.528 271.051,55.8445 268.884,56.6908C266.716,57.6311 264.267,58.0072 261.534,58.0072C258.896,58.0072 256.446,57.5371 254.185,56.6908C252.017,55.7505 250.133,54.528 248.531,52.9295C246.929,51.3309 245.704,49.3563 244.856,47.1935C244.008,44.9367 243.537,42.5859 243.537,39.953C243.537,37.3201 244.008,34.9693 244.856,32.7125C245.704,30.4557 246.929,28.5751 248.531,26.9765C250.133,25.378 252.017,24.0615 254.185,23.2152C256.352,22.3689 258.802,21.8988 261.534,21.8988C263.324,21.8988 265.02,22.0868 266.622,22.557C268.224,22.9331 269.637,23.5913 270.957,24.3436C272.276,25.0959 273.501,26.0362 274.537,27.0705C275.574,28.1989 276.516,29.3273 277.27,30.7378C278.023,32.0543 278.589,33.5588 278.966,35.0633C279.343,36.5678 279.531,38.1664 279.531,39.953ZM272.841,39.953C272.841,37.9783 272.558,36.2857 272.087,34.6872C271.522,33.1827 270.862,31.8662 269.826,30.7378C268.884,29.7035 267.659,28.8572 266.339,28.293C264.926,27.7288 263.418,27.4467 261.628,27.4467C259.932,27.4467 258.33,27.7288 256.917,28.293C255.504,28.8572 254.373,29.7035 253.431,30.7378C252.488,31.7722 251.735,33.0886 251.169,34.6872C250.604,36.1917 250.415,37.9783 250.415,39.953C250.415,41.9277 250.698,43.6203 251.169,45.2188C251.735,46.7234 252.394,48.0398 253.431,49.1682C254.373,50.2026 255.598,51.0488 256.917,51.613C258.33,52.1772 259.838,52.4593 261.628,52.4593C263.324,52.4593 264.926,52.1772 266.339,51.613C267.753,51.0488 268.884,50.2026 269.826,49.1682C270.768,48.1338 271.522,46.8174 272.087,45.2188C272.558,43.6203 272.841,41.8337 272.841,39.953ZM291.78,58.0072C289.613,58.0072 287.917,57.349 286.786,56.1265C285.655,54.9041 284.996,53.2115 284.996,51.0488L284.996,37.0379L282.452,37.0379C282.169,37.0379 281.886,36.9439 281.604,36.7558C281.321,36.5677 281.227,36.1916 281.227,35.8155L281.227,33.3706L285.278,32.7124L286.598,25.848C286.692,25.5659 286.88,25.2838 287.069,25.0958C287.257,24.9077 287.634,24.8137 287.917,24.8137L291.026,24.8137L291.026,32.7124L301.485,32.7124L302.804,25.848C302.898,25.5659 302.993,25.2838 303.275,25.0958C303.464,24.9077 303.841,24.8137 304.218,24.8137L307.327,24.8137L307.327,32.7124L314.017,32.7124L314.017,37.0379L307.327,37.0379L307.327,50.6726C307.327,51.4249 307.515,52.0831 307.892,52.5532C308.269,53.0234 308.835,53.2115 309.494,53.2115C309.871,53.2115 310.154,53.2115 310.436,53.1174C310.719,53.0234 310.908,52.9294 311.096,52.8353C311.284,52.7413 311.473,52.6473 311.567,52.5532C311.756,52.4592 311.85,52.4592 312.038,52.4592C312.227,52.4592 312.321,52.4592 312.509,52.5532C312.604,52.6473 312.792,52.7413 312.886,52.9294L314.677,55.8444C313.829,56.5966 312.792,57.1608 311.661,57.537C310.531,57.9131 309.306,58.1012 308.081,58.1012C305.914,58.1012 304.218,57.4429 302.993,56.2205C301.768,54.9981 301.202,53.3055 301.202,51.1428L301.202,37.132L291.026,37.132L291.026,50.6727C291.026,51.4249 291.215,52.0831 291.591,52.5533C291.968,53.0235 292.534,53.2115 293.193,53.2115C293.57,53.2115 293.853,53.2115 294.136,53.1175C294.418,53.0235 294.607,52.9294 294.795,52.8354C294.984,52.7414 295.172,52.6473 295.266,52.5533C295.455,52.4593 295.549,52.4593 295.737,52.4593C295.926,52.4593 296.02,52.4593 296.209,52.5533C296.303,52.6473 296.491,52.7414 296.585,52.9294L298.376,55.8444C297.528,56.5967 296.491,57.1609 295.36,57.537C294.23,57.8191 293.099,58.0072 291.78,58.0072L291.78,58.0072ZM327.68,32.1483C329.282,32.1483 330.695,32.4304 332.108,32.9006C333.428,33.3707 334.558,34.123 335.595,35.1573C336.537,36.0977 337.291,37.3201 337.856,38.7306C338.422,40.1411 338.704,41.7396 338.704,43.5262C338.704,44.4666 338.61,45.0308 338.422,45.4069C338.233,45.689 337.856,45.877 337.291,45.877L321.744,45.877C321.838,47.1935 322.026,48.3219 322.403,49.2622C322.78,50.2026 323.251,50.9548 323.817,51.613C324.382,52.2713 325.136,52.6474 325.89,53.0235C326.738,53.3056 327.586,53.4937 328.622,53.4937C329.565,53.4937 330.413,53.3997 331.166,53.1176C331.92,52.9295 332.485,52.6474 333.051,52.3653C333.616,52.0832 334.087,51.8011 334.464,51.613C334.841,51.425 335.218,51.2369 335.595,51.2369C336.066,51.2369 336.443,51.425 336.726,51.8011L338.422,53.9639C337.762,54.7161 337.008,55.3743 336.16,55.9385C335.312,56.5027 334.464,56.8789 333.522,57.255C332.58,57.5371 331.732,57.8192 330.789,57.9132C329.847,58.0073 328.905,58.1013 328.057,58.1013C326.267,58.1013 324.665,57.8192 323.157,57.255C321.65,56.6908 320.33,55.8445 319.2,54.7161C318.069,53.5877 317.221,52.1772 316.561,50.4846C315.902,48.7921 315.619,46.9114 315.619,44.6546C315.619,42.962 315.902,41.3635 316.467,39.859C317.033,38.3544 317.786,37.038 318.823,35.9096C319.859,34.7812 321.084,33.9349 322.592,33.2767C324.099,32.4304 325.796,32.1483 327.68,32.1483L327.68,32.1483ZM327.774,36.4738C325.984,36.4738 324.665,36.944 323.628,37.9783C322.592,39.0127 322.026,40.4232 321.744,42.2098L333.145,42.2098C333.145,41.4575 333.051,40.7053 332.768,39.953C332.58,39.2948 332.203,38.6365 331.731,38.1664C331.26,37.6022 330.695,37.2261 330.035,36.944C329.47,36.5678 328.716,36.4738 327.774,36.4738L327.774,36.4738ZM342.19,57.6311L342.19,32.5244L345.771,32.5244C346.43,32.5244 346.807,32.6184 347.09,32.9005C347.372,33.0886 347.467,33.5588 347.561,34.123L347.938,36.9439C348.691,35.4394 349.634,34.217 350.764,33.3707C351.801,32.5244 353.12,32.0542 354.628,32.0542C355.758,32.0542 356.701,32.3363 357.454,32.8065L357.078,37.3201C356.983,37.6022 356.889,37.7902 356.701,37.9783C356.512,38.0723 356.324,38.1664 356.041,38.1664C355.758,38.1664 355.476,38.1664 354.91,38.0723C354.439,37.9783 353.968,37.9783 353.497,37.9783C352.837,37.9783 352.272,38.0723 351.707,38.2604C351.141,38.4485 350.67,38.7306 350.293,39.1067C349.916,39.4828 349.54,39.953 349.163,40.4231C348.88,40.9873 348.503,41.5515 348.22,42.2098L348.22,57.6311L342.19,57.6311L342.19,57.6311Z" style="fill:rgb(158,202,176);"/>
    </g>
</svg>
