<?xml version="1.0" encoding="utf-8"?>
<!-- Generator: Adobe Illustrator 18.1.1, SVG Export Plug-In . SVG Version: 6.00 Build 0)  -->
<svg version="1.1" id="Thumbs_up" xmlns="http://www.w3.org/2000/svg" xmlns:xlink="http://www.w3.org/1999/xlink" x="0px" y="0px"
	 viewBox="0 0 960 560" enable-background="new 0 0 960 560" xml:space="preserve">
<path fill="#3DB685" d="M582.1,206.1c-3.7-9.9,99.1-101.8,39.1-176.1c-14-17.4-61.6,83.3-129.2,128.9C454.8,184,368,237.6,368,267.1
	v191.6c0,35.6,137.6,73.3,242.1,73.3c38.3,0,93.9-240.1,93.9-278.3C704,215.4,585.8,216.1,582.1,206.1z M340,208.8
	c-18.4,0-84,11.2-84,87.4V432c0,76.2,65.6,84.6,84,84.6c18.4,0-28-16-28-63.3V274.8C312,225.3,358.4,208.8,340,208.8z"/>
</svg>
